<svg width="256" height="256" viewBox="0 0 256 256" fill="none" xmlns="http://www.w3.org/2000/svg">
<path d="M216.072 74.5437C210.116 74.4936 204.223 74.4896 198.394 74.5319C173.671 74.7167 147.492 74.8091 119.86 74.8091C117.737 74.8091 114.857 74.883 111.219 75.0308C105.362 75.2684 100.095 74.9714 94.5433 76.1594C83.0593 78.6186 76.0224 88.9819 76.3154 100.466C76.5491 109.661 81.1229 118.036 87.8232 124.167C90.3813 126.503 93.4371 128.991 96.9906 131.631C99.1554 133.239 104.014 136.787 111.567 142.276C116.501 145.858 120.129 148.301 122.449 149.606C132.037 154.987 141.747 158.266 152.316 160.044C158.549 161.09 165.97 162.214 172.71 163.074C188.724 165.122 198.966 166.416 203.435 166.954C212.971 168.103 224.892 169.412 239.198 170.883C239.676 170.93 240.626 171.078 242.049 171.326C246.726 172.142 249.902 175.995 250.179 180.707C250.52 186.476 250.214 192.248 249.261 198.024C248.754 201.116 247.989 205.199 246.968 210.273C245.574 217.215 243.883 223.757 242.643 230.572C242.089 233.601 241.206 236.27 240.438 238.971C239.989 240.547 239.586 241.629 239.23 242.218C236.901 246.075 232.787 246.479 228.724 245.287C225.395 244.308 221.834 243.151 218.04 241.818C209.625 238.86 205.13 237.668 194.751 234.647C190.757 233.482 184.831 231.934 176.975 230.001C170.866 228.497 164.878 227.208 159.012 226.137C138.242 222.335 117.448 219.484 96.7213 218.161C94.9103 218.048 93.9401 217.982 93.8107 217.963C91.6842 217.658 89.5497 217.781 87.3876 217.587C84.0691 217.29 81.2694 217.333 77.9153 217.124C76.2177 217.018 74.2338 216.964 71.9634 216.961C62.5148 216.948 55.6416 216.949 51.3437 216.965C46.9639 216.981 42.7505 217.345 38.8103 217.357C35.7333 217.369 31.809 218.624 29.2667 216.015C28.7677 215.505 28.0905 214.293 27.2352 212.379C21.8443 200.328 16.9959 187.759 12.6901 174.672C10.5359 168.13 8.74858 161.827 7.32826 155.763C5.51194 148.004 4.24738 141.577 3.53458 136.482C2.58946 129.718 2.17762 122.588 2.29906 115.09C2.30434 114.813 2.47462 112.68 2.8099 108.691C3.32074 102.648 4.51666 96.6247 5.74426 90.9065C6.59566 86.9425 8.25094 82.5944 9.34786 79.6284C12.7772 70.362 17.2956 62.0618 23.2712 53.8923C27.3817 48.2744 31.8248 43.3231 36.6006 39.0384C45.6267 30.9415 55.5941 24.4986 66.5025 19.7096C80.1725 13.7115 94.4707 10.3046 109.397 9.48886C115.617 9.15094 122.204 9.36082 129.158 10.1185C129.981 10.2083 133.037 10.6254 138.325 11.3699C143.73 12.1302 148.942 12.8865 154.292 14.7319C160.332 16.8175 165.793 19.3097 170.674 22.2084C174.143 24.2676 178.242 26.9195 182.97 30.164C186.925 32.8779 190.84 36.4182 194.715 40.7847C203.541 50.7243 210.705 61.9074 216.206 74.3339C216.216 74.3569 216.221 74.3821 216.219 74.4071C216.217 74.4321 216.209 74.4561 216.195 74.477C216.182 74.4978 216.164 74.5149 216.142 74.5266C216.12 74.5382 216.096 74.5441 216.072 74.5437Z" fill="#040601"/>
<path d="M117.7 100.124C116.88 92.6983 110.332 87.328 103.073 88.1294C95.8147 88.9307 90.5952 95.6002 91.415 103.026C92.2348 110.452 98.7836 115.822 106.042 115.021C113.3 114.219 118.52 107.55 117.7 100.124Z" fill="#040601"/>
<path d="M221.952 90.7685C225.638 101.186 228.81 110.344 231.468 118.243C233.567 124.476 235.13 128.997 236.157 131.806C239.131 139.928 241.178 145.44 243.304 152.35C243.641 153.439 244.077 154.441 243.099 155.119C242.634 155.438 241.995 155.578 241.182 155.538C236.451 155.306 230.829 154.655 224.316 153.586C220.868 153.018 217.847 152.605 215.252 152.347C201.447 150.958 185.83 149.12 168.401 146.834C166.207 146.549 163.74 146.098 161.602 145.108C156.456 142.718 152.173 139.68 148.752 135.992C145.298 132.265 143.924 128.559 141.627 122.88C138.048 114.028 134.899 106.054 132.183 98.9578C131.157 96.2848 130.666 93.101 133.403 91.2437C134.488 90.5072 136.555 90.6933 137.846 90.7131C139.218 90.7342 139.918 90.7448 139.944 90.7448C166.574 90.6946 193.81 90.6313 221.651 90.5547C221.717 90.5544 221.781 90.5749 221.835 90.6132C221.889 90.6515 221.93 90.7058 221.952 90.7685Z" fill="#040601"/>
</svg>
