<svg width="256" height="256" viewBox="0 0 256 256" fill="none" xmlns="http://www.w3.org/2000/svg">
<path d="M205.936 88.2046C205.938 88.2518 205.95 88.298 205.972 88.3401C205.993 88.3821 206.024 88.419 206.061 88.4482C206.098 88.4774 206.141 88.4982 206.187 88.5091C206.233 88.52 206.28 88.5208 206.327 88.5114C211.223 87.5595 216.228 87.418 221.341 88.0872C236.867 90.1174 248.919 103.939 250.62 119.021C251.158 123.791 251.125 128.334 250.521 132.649C248.995 143.531 243.291 153.387 235.984 161.447C224.326 174.302 207.031 181.291 189.756 181.257C187.676 181.253 185.449 180.889 183.691 180.878C182.686 180.873 181.914 181.295 181.373 182.143C180.846 182.971 180.026 184.232 178.915 185.927C172.721 195.358 165.071 203.623 155.966 210.721C147.034 217.685 136.984 222.69 125.816 225.735C118.457 227.74 110.856 228.571 103.01 228.228C95.7225 227.91 88.3782 226.644 81.674 224.3C72.225 220.994 63.9047 216.601 56.7132 211.119C40.7796 198.978 28.6262 183.739 20.2529 165.401C14.3669 152.516 10.3974 138.509 8.23839 124.51C6.82937 115.384 5.83321 106.353 5.24991 97.4163C5.0479 94.3306 4.96836 91.1489 5.01129 87.8713C5.35596 61.1 28.1351 45.0137 50.5089 36.4156C56.8217 33.9915 63.4199 32.0686 70.3034 30.647C98.7716 24.7735 126.929 25.9945 154.776 34.3097C170.317 38.9496 186.366 47.5022 196.494 60.5545C201.804 67.3976 204.838 75.0765 205.596 83.5912C205.77 85.5431 205.883 87.0809 205.936 88.2046ZM53.4254 51.8277C39.3542 57.6986 24.0027 68.592 22.1013 85.023C20.8892 95.4694 26.5064 105.192 34.1386 111.859C41.0397 117.885 49.009 122.29 57.7017 125.597C68.2265 129.599 79.2549 132.177 90.7872 133.331C97.5494 134.008 103.612 134.293 108.976 134.187C112.773 134.114 117.012 133.835 121.691 133.35C136.429 131.831 150.742 128.078 163.855 121.279C169.284 118.461 174.072 115.125 178.218 111.272C184.036 105.863 188.915 98.3935 189.263 90.2424C189.559 83.3513 187.844 77.1446 184.119 71.6221C175.779 59.2516 161.462 51.911 147.39 47.6575C135.429 44.0415 123.066 42.1918 110.301 42.1085C102.352 42.058 97.0507 42.1237 94.3968 42.3055C79.89 43.3105 66.2329 46.4846 53.4254 51.8277ZM193.858 160.409C207.52 159.663 220.053 153.834 227.072 141.672C231.613 133.801 233.473 122.71 228.057 114.813C225.1 110.503 220.976 108.418 215.686 108.56C213.062 108.628 210.547 109.22 208.141 110.336C205.3 111.654 204.543 113.128 204.202 116.173C202.81 128.591 200.129 140.804 196.157 152.811C195.369 155.197 194.531 157.633 193.642 160.118C193.629 160.151 193.625 160.187 193.63 160.222C193.635 160.257 193.649 160.291 193.67 160.32C193.692 160.349 193.72 160.372 193.753 160.388C193.785 160.403 193.821 160.411 193.858 160.409Z" fill="#110503"/>
<path d="M164.056 64.3116C170.082 68.372 175.465 73.8111 177.942 80.7047C180.411 87.5718 179.226 95.0941 174.938 101.007C170.404 107.256 163.412 112.226 156.367 115.665C150.287 118.632 144.004 120.9 137.52 122.468C126.447 125.144 115.449 126.42 104.525 126.293C98.1164 126.218 91.3036 125.576 84.0868 124.369C75.2009 122.882 66.7556 120.477 58.751 117.154C47.8197 112.62 33.9568 103.628 32.4493 90.6095C31.9367 86.1653 32.6576 82.0178 34.6121 78.167C38.3013 70.9022 45.5282 65.1222 52.8763 61.2966C62.122 56.4825 72.3563 53.4523 82.6513 51.71C99.7539 48.8086 116.791 49.0624 133.762 52.4713C144.55 54.6379 154.969 58.1907 164.056 64.3116ZM105.048 69.7545C104.947 69.6383 104.86 69.4654 104.786 69.2356C103.302 64.5048 100.298 59.4217 95.1468 58.6528C90.9576 58.0316 85.8481 59.1641 85.5943 64.1904C85.5564 64.9227 85.6511 65.8696 85.8784 67.0312C86.9692 72.6786 91.6735 74.9058 96.2301 77.5685C99.9572 79.7426 102.726 83.1288 101.48 87.6816C101.458 87.7594 101.42 87.8315 101.367 87.8925C101.314 87.9536 101.248 88.002 101.175 88.0343C101.101 88.0666 101.021 88.082 100.941 88.0793C100.861 88.0766 100.782 88.0559 100.711 88.0187C99.3019 87.2839 97.6732 86.1628 96.2187 85.3939C93.8552 84.149 90.416 82.7551 85.9011 81.2122C83.1361 80.2679 80.8243 78.6808 78.9658 76.4511C77.1478 74.2694 75.7956 72.8377 73.3752 72.7203C70.0572 72.5612 67.2202 75.2277 67.5611 78.5722C68.2353 85.1401 75.591 89.852 81.2839 91.6056C86.2609 93.1384 89.7923 94.3416 91.878 95.2153C97.1505 97.4235 104.881 101.211 101.302 108.472C101.241 108.595 101.135 108.688 101.006 108.732C100.876 108.776 100.735 108.767 100.612 108.707C98.2641 107.54 96.6998 106.745 94.3969 105.934C85.9617 102.969 80.0567 100.916 72.5533 97.8781C68.2656 96.1395 64.1749 94.0563 61.7167 90.1512C61.2647 89.434 60.6423 88.3546 59.8494 86.9127C58.1753 83.8674 54.1527 84.0568 51.846 86.14C50.4749 87.3748 49.9598 88.9454 50.3007 90.8519C52.1528 101.257 61.016 107.143 70.3489 110.582C76.1314 112.716 82.0288 114.211 88.0411 115.067C88.9754 115.2 91.6521 115.555 96.071 116.131C99.4244 116.565 102.529 117.732 105.385 119.631C105.522 119.722 105.684 119.77 105.85 119.768C106.016 119.766 106.177 119.714 106.313 119.619C108.876 117.842 111.652 116.75 114.642 116.343C119.505 115.681 122.984 115.192 125.077 114.873C129.69 114.174 134.611 112.904 139.838 111.063C149.171 107.771 158.106 101.503 160.306 91.1966C160.667 89.5123 160.472 88.1563 159.719 87.1286C158.883 85.9873 157.871 85.2348 156.682 84.8711C154.81 84.303 152.068 84.6515 151.034 86.6589C150.181 88.3179 149.499 89.5275 148.989 90.2875C145.606 95.3138 140.163 97.3667 133.914 99.7302C128.449 101.801 122.763 103.865 116.854 105.923C114.475 106.753 112.653 107.59 110.487 108.684C110.425 108.716 110.358 108.734 110.288 108.739C110.219 108.744 110.15 108.736 110.084 108.714C110.018 108.692 109.957 108.658 109.905 108.612C109.853 108.567 109.81 108.512 109.779 108.449C108.764 106.427 108.4 103.431 109.718 101.457C110.306 100.571 111.007 99.8237 111.82 99.2151C116.899 95.4123 123.085 93.5525 129.433 91.5526C135.194 89.7421 142.114 85.1969 143.027 78.8563C143.747 73.8717 137.508 70.8378 133.838 74.1028C132.759 75.0648 131.649 76.7844 130.493 77.8374C128.862 79.3222 126.986 80.4522 124.865 81.2274C121.347 82.5102 119.344 83.2488 118.854 83.4432C115.71 84.6931 112.743 86.2246 109.953 88.0377C109.904 88.0705 109.848 88.0916 109.79 88.0995C109.731 88.1074 109.672 88.1018 109.616 88.0831C109.56 88.0645 109.509 88.0333 109.467 87.9919C109.425 87.9506 109.393 87.9001 109.373 87.8445C108.127 84.356 110.112 80.7274 112.968 78.5912C114.14 77.715 115.838 76.6405 118.062 75.3679C119.312 74.6532 120.611 73.6142 121.96 72.2506C124.104 70.084 125.153 67.1865 125.134 64.2018C125.088 57.4862 115.706 57.5847 111.722 60.2398C109.582 61.6678 107.885 64.3836 106.93 66.7925C106.302 68.3808 105.906 69.3366 105.745 69.6598C105.714 69.7221 105.668 69.7759 105.612 69.8164C105.556 69.857 105.49 69.8831 105.421 69.8924C105.353 69.9018 105.283 69.8941 105.217 69.87C105.152 69.846 105.094 69.8063 105.048 69.7545Z" fill="#110503"/>
</svg>
