<svg width="256" height="256" viewBox="0 0 256 256" fill="none" xmlns="http://www.w3.org/2000/svg">
<path d="M132.301 24.6212C134.138 24.5666 135.772 24.9551 137.202 25.7867C139.026 26.8483 139.678 28.5556 139.681 30.6346C139.686 33.5872 139.583 36.5744 139.373 39.5963C139.32 40.3418 139.219 40.8595 139.07 41.1493C138.525 42.214 137.829 42.8534 136.786 43.8173C136.723 43.8771 136.674 43.9506 136.644 44.0321C136.614 44.1136 136.603 44.2008 136.613 44.2867C136.764 45.6412 136.783 46.9894 136.941 48.3974C138.037 58.2737 139.268 67.0391 140.633 74.6936C141.477 79.447 143.137 88.33 144.699 95.4994C145.812 100.604 147.321 107.28 149.226 115.527C149.24 115.589 149.275 115.643 149.324 115.682C149.373 115.721 149.434 115.742 149.497 115.741C151.771 115.708 153.551 115.709 154.836 115.744C157.608 115.823 158.77 118.318 158.544 120.806C158.358 122.835 157.917 125.012 156.71 126.694C155.853 127.887 154.95 129.011 154.001 130.067C153.942 130.133 153.901 130.213 153.882 130.3C153.863 130.386 153.867 130.477 153.894 130.562C156.329 138.343 159.111 146.003 162.361 153.62C163.617 156.564 164.8 159.391 165.911 162.1C165.931 162.147 165.964 162.188 166.007 162.217C166.049 162.245 166.099 162.261 166.151 162.26C169.908 162.244 173.17 162.253 175.938 162.289C178.496 162.32 179.173 164.012 179.242 166.239C179.274 167.299 179.272 169.058 179.236 171.515C179.221 172.611 179.001 173.594 178.574 174.464C177.944 175.747 177.024 177.271 175.812 179.037C175.763 179.107 175.736 179.19 175.735 179.275C175.733 179.361 175.756 179.444 175.802 179.516C197.516 213.629 209.403 232.33 211.464 235.621C211.993 236.465 212.607 237.58 211.826 238.412C210.654 239.662 209.444 239.565 207.548 239.565C189.919 239.577 178.884 239.579 174.445 239.571C171.934 239.565 169.858 238.972 169.395 236.163C169.326 235.745 169.254 234.857 169.178 233.501C168.942 229.264 167.88 224.911 166.431 221.106C160.708 206.074 147.254 195.395 131.06 194.227C130.083 194.157 128.489 194.14 126.278 194.173C118.126 194.293 110.03 197.358 103.778 202.127C94.6899 209.06 89.2782 218.652 87.3189 229.828C86.9881 231.718 86.9566 233.904 86.7266 235.668C86.3077 238.865 84.1279 239.58 81.3622 239.577C65.3644 239.56 54.078 239.561 47.5029 239.58C45.994 239.587 44.2079 239.754 43.9496 237.908C43.8142 236.956 45.2065 234.881 45.8082 233.926C58.278 214.171 69.6631 196.157 79.9636 179.882C80.0299 179.776 80.066 179.655 80.0676 179.531C80.0693 179.407 80.0366 179.285 79.973 179.179C78.4736 176.662 76.5994 174.253 76.5458 171.518C76.5227 170.405 76.5269 168.48 76.5584 165.741C76.5689 164.828 76.6981 164.184 76.9459 163.81C77.8657 162.421 78.9556 162.251 80.5747 162.26C81.5722 162.265 84.6309 162.259 89.7507 162.245C89.8418 162.244 89.9307 162.217 90.0067 162.166C90.0828 162.116 90.1426 162.045 90.179 161.961C94.463 152.253 98.8542 141.382 102.064 130.669C102.108 130.52 102.113 130.363 102.077 130.212C102.042 130.061 101.968 129.922 101.862 129.809C100.435 128.272 98.6557 126.202 98.0509 124.171C97.0555 120.832 96.5578 115.518 101.809 115.707C103.323 115.761 104.857 115.781 106.411 115.766C106.514 115.766 106.614 115.73 106.695 115.665C106.776 115.6 106.834 115.509 106.858 115.407C108.65 107.831 110.305 100.388 111.826 93.0802C113.259 86.1848 114.264 80.3384 115.505 73.3895C116.683 66.7997 117.818 58.7704 118.91 49.3015C119.139 47.3191 119.294 45.6065 119.376 44.1638C119.381 44.0666 119.362 43.9696 119.322 43.8813C119.281 43.793 119.22 43.716 119.143 43.6567C117.644 42.5006 116.655 41.3257 116.595 39.2971C116.528 37.0438 116.451 34.8041 116.365 32.5781C116.255 29.7211 116.245 27.3271 118.658 25.8844C120.155 24.9919 121.797 24.574 123.582 24.6307C123.64 24.6325 123.696 24.6119 123.74 24.5732C123.783 24.5346 123.81 24.4807 123.815 24.4228C124.266 19.3156 124.622 15.1702 124.883 11.9866C125.103 9.31537 125.169 7.19542 125.39 4.57777C125.478 3.53197 125.712 2.79802 126.092 2.37592C127.185 1.16632 129.293 1.21987 130.159 2.71297C130.367 3.06997 130.5 3.66427 130.559 4.49587C130.987 10.4872 131.456 16.2664 131.964 21.8335C132.033 22.6021 132.082 23.4725 132.112 24.4448C132.113 24.4688 132.118 24.4924 132.128 24.5143C132.138 24.5361 132.152 24.5558 132.17 24.5722C132.187 24.5886 132.208 24.6013 132.23 24.6098C132.253 24.6182 132.277 24.6221 132.301 24.6212ZM128.011 162.254C135.55 162.258 140.265 162.257 142.157 162.251C142.183 162.251 142.208 162.245 142.231 162.232C142.254 162.22 142.273 162.202 142.288 162.18C142.302 162.159 142.311 162.134 142.313 162.107C142.316 162.081 142.312 162.055 142.302 162.031C141.492 160.071 140.727 158.012 140.009 155.853C137.6 148.602 135.549 141.381 133.854 134.191C133.84 134.131 133.807 134.077 133.759 134.039C133.71 134.001 133.651 133.98 133.589 133.98C132.43 133.973 130.576 133.969 128.026 133.967C125.475 133.965 123.619 133.967 122.46 133.973C122.399 133.973 122.339 133.994 122.291 134.033C122.243 134.071 122.209 134.125 122.196 134.185C120.495 141.373 118.436 148.592 116.018 155.841C115.298 158 114.532 160.059 113.719 162.018C113.709 162.042 113.705 162.069 113.708 162.095C113.71 162.121 113.719 162.146 113.734 162.168C113.748 162.19 113.767 162.207 113.79 162.22C113.813 162.232 113.838 162.238 113.864 162.238C115.756 162.245 120.472 162.25 128.011 162.254Z" fill="#040501"/>
</svg>
